<?xml version="1.0" encoding="utf-8" standalone="no"?>
<!DOCTYPE svg PUBLIC "-//W3C//DTD SVG 1.1//EN"
  "http://www.w3.org/Graphics/SVG/1.1/DTD/svg11.dtd">
<svg xmlns:xlink="http://www.w3.org/1999/xlink" width="730.128125pt" height="549.114375pt" viewBox="0 0 730.128125 549.114375" xmlns="http://www.w3.org/2000/svg" version="1.1">
 <metadata>
  <rdf:RDF xmlns:dc="http://purl.org/dc/elements/1.1/" xmlns:cc="http://creativecommons.org/ns#" xmlns:rdf="http://www.w3.org/1999/02/22-rdf-syntax-ns#">
   <cc:Work>
    <dc:type rdf:resource="http://purl.org/dc/dcmitype/StillImage"/>
    <dc:date>2022-05-05T11:58:25.905458</dc:date>
    <dc:format>image/svg+xml</dc:format>
    <dc:creator>
     <cc:Agent>
      <dc:title>Matplotlib v3.5.0, https://matplotlib.org/</dc:title>
     </cc:Agent>
    </dc:creator>
   </cc:Work>
  </rdf:RDF>
 </metadata>
 <defs>
  <style type="text/css">*{stroke-linejoin: round; stroke-linecap: butt}</style>
 </defs>
 <g id="figure_1">
  <g id="patch_1">
   <path d="M 0 549.114375 
L 730.128125 549.114375 
L 730.128125 0 
L 0 0 
L 0 549.114375 
z
" style="fill: none"/>
  </g>
  <g id="axes_1">
   <g id="patch_2">
    <path d="M 53.328125 511.558125 
L 722.928125 511.558125 
L 722.928125 22.318125 
L 53.328125 22.318125 
z
" style="fill: #ffffff"/>
   </g>
   <g id="patch_3">
    <path d="M 83.764489 511.558125 
L 86.815753 511.558125 
L 86.815753 511.427609 
L 83.764489 511.427609 
z
" clip-path="url(#pb9b24d87b6)" style="fill: #0000ff"/>
   </g>
   <g id="patch_4">
    <path d="M 91.39265 511.558125 
L 94.443914 511.558125 
L 94.443914 510.775028 
L 91.39265 510.775028 
z
" clip-path="url(#pb9b24d87b6)" style="fill: #0000ff"/>
   </g>
   <g id="patch_5">
    <path d="M 99.020811 511.558125 
L 102.072076 511.558125 
L 102.072076 511.03606 
L 99.020811 511.03606 
z
" clip-path="url(#pb9b24d87b6)" style="fill: #0000ff"/>
   </g>
   <g id="patch_6">
    <path d="M 106.648973 511.558125 
L 109.700237 511.558125 
L 109.700237 509.208833 
L 106.648973 509.208833 
z
" clip-path="url(#pb9b24d87b6)" style="fill: #0000ff"/>
   </g>
   <g id="patch_7">
    <path d="M 114.277134 511.558125 
L 117.328398 511.558125 
L 117.328398 505.032315 
L 114.277134 505.032315 
z
" clip-path="url(#pb9b24d87b6)" style="fill: #0000ff"/>
   </g>
   <g id="patch_8">
    <path d="M 121.905295 511.558125 
L 124.95656 511.558125 
L 124.95656 495.635148 
L 121.905295 495.635148 
z
" clip-path="url(#pb9b24d87b6)" style="fill: #0000ff"/>
   </g>
   <g id="patch_9">
    <path d="M 129.533457 511.558125 
L 132.584721 511.558125 
L 132.584721 474.622039 
L 129.533457 474.622039 
z
" clip-path="url(#pb9b24d87b6)" style="fill: #0000ff"/>
   </g>
   <g id="patch_10">
    <path d="M 137.161618 511.558125 
L 140.212882 511.558125 
L 140.212882 438.991114 
L 137.161618 438.991114 
z
" clip-path="url(#pb9b24d87b6)" style="fill: #0000ff"/>
   </g>
   <g id="patch_11">
    <path d="M 144.789779 511.558125 
L 147.841044 511.558125 
L 147.841044 379.084175 
L 144.789779 379.084175 
z
" clip-path="url(#pb9b24d87b6)" style="fill: #0000ff"/>
   </g>
   <g id="patch_12">
    <path d="M 152.41794 511.558125 
L 155.469205 511.558125 
L 155.469205 309.388521 
L 152.41794 309.388521 
z
" clip-path="url(#pb9b24d87b6)" style="fill: #0000ff"/>
   </g>
   <g id="patch_13">
    <path d="M 160.046102 511.558125 
L 163.097366 511.558125 
L 163.097366 239.170802 
L 160.046102 239.170802 
z
" clip-path="url(#pb9b24d87b6)" style="fill: #0000ff"/>
   </g>
   <g id="patch_14">
    <path d="M 167.674263 511.558125 
L 170.725528 511.558125 
L 170.725528 198.058197 
L 167.674263 198.058197 
z
" clip-path="url(#pb9b24d87b6)" style="fill: #0000ff"/>
   </g>
   <g id="patch_15">
    <path d="M 175.302424 511.558125 
L 178.353689 511.558125 
L 178.353689 130.059253 
L 175.302424 130.059253 
z
" clip-path="url(#pb9b24d87b6)" style="fill: #0000ff"/>
   </g>
   <g id="patch_16">
    <path d="M 182.930586 511.558125 
L 185.98185 511.558125 
L 185.98185 174.826312 
L 182.930586 174.826312 
z
" clip-path="url(#pb9b24d87b6)" style="fill: #0000ff"/>
   </g>
   <g id="patch_17">
    <path d="M 190.558747 511.558125 
L 193.610012 511.558125 
L 193.610012 123.533443 
L 190.558747 123.533443 
z
" clip-path="url(#pb9b24d87b6)" style="fill: #0000ff"/>
   </g>
   <g id="patch_18">
    <path d="M 198.186908 511.558125 
L 201.238173 511.558125 
L 201.238173 45.615268 
L 198.186908 45.615268 
z
" clip-path="url(#pb9b24d87b6)" style="fill: #0000ff"/>
   </g>
   <g id="patch_19">
    <path d="M 205.81507 511.558125 
L 208.866334 511.558125 
L 208.866334 207.194331 
L 205.81507 207.194331 
z
" clip-path="url(#pb9b24d87b6)" style="fill: #0000ff"/>
   </g>
   <g id="patch_20">
    <path d="M 213.443231 511.558125 
L 216.494495 511.558125 
L 216.494495 252.091907 
L 213.443231 252.091907 
z
" clip-path="url(#pb9b24d87b6)" style="fill: #0000ff"/>
   </g>
   <g id="patch_21">
    <path d="M 221.071392 511.558125 
L 224.122657 511.558125 
L 224.122657 247.654355 
L 221.071392 247.654355 
z
" clip-path="url(#pb9b24d87b6)" style="fill: #0000ff"/>
   </g>
   <g id="patch_22">
    <path d="M 228.699554 511.558125 
L 231.750818 511.558125 
L 231.750818 297.38103 
L 228.699554 297.38103 
z
" clip-path="url(#pb9b24d87b6)" style="fill: #0000ff"/>
   </g>
   <g id="patch_23">
    <path d="M 236.327715 511.558125 
L 239.378979 511.558125 
L 239.378979 333.925568 
L 236.327715 333.925568 
z
" clip-path="url(#pb9b24d87b6)" style="fill: #0000ff"/>
   </g>
   <g id="patch_24">
    <path d="M 243.955876 511.558125 
L 247.007141 511.558125 
L 247.007141 365.51049 
L 243.955876 365.51049 
z
" clip-path="url(#pb9b24d87b6)" style="fill: #0000ff"/>
   </g>
   <g id="patch_25">
    <path d="M 251.584038 511.558125 
L 254.635302 511.558125 
L 254.635302 397.095412 
L 251.584038 397.095412 
z
" clip-path="url(#pb9b24d87b6)" style="fill: #0000ff"/>
   </g>
   <g id="patch_26">
    <path d="M 259.212199 511.558125 
L 262.263463 511.558125 
L 262.263463 425.02588 
L 259.212199 425.02588 
z
" clip-path="url(#pb9b24d87b6)" style="fill: #0000ff"/>
   </g>
   <g id="patch_27">
    <path d="M 266.84036 511.558125 
L 269.891625 511.558125 
L 269.891625 439.252147 
L 266.84036 439.252147 
z
" clip-path="url(#pb9b24d87b6)" style="fill: #0000ff"/>
   </g>
   <g id="patch_28">
    <path d="M 274.468521 511.558125 
L 277.519786 511.558125 
L 277.519786 447.7357 
L 274.468521 447.7357 
z
" clip-path="url(#pb9b24d87b6)" style="fill: #0000ff"/>
   </g>
   <g id="patch_29">
    <path d="M 282.096683 511.558125 
L 285.147947 511.558125 
L 285.147947 458.960094 
L 282.096683 458.960094 
z
" clip-path="url(#pb9b24d87b6)" style="fill: #0000ff"/>
   </g>
   <g id="patch_30">
    <path d="M 289.724844 511.558125 
L 292.776109 511.558125 
L 292.776109 467.965712 
L 289.724844 467.965712 
z
" clip-path="url(#pb9b24d87b6)" style="fill: #0000ff"/>
   </g>
   <g id="patch_31">
    <path d="M 297.353005 511.558125 
L 300.40427 511.558125 
L 300.40427 479.451138 
L 297.353005 479.451138 
z
" clip-path="url(#pb9b24d87b6)" style="fill: #0000ff"/>
   </g>
   <g id="patch_32">
    <path d="M 304.981167 511.558125 
L 308.032431 511.558125 
L 308.032431 487.673659 
L 304.981167 487.673659 
z
" clip-path="url(#pb9b24d87b6)" style="fill: #0000ff"/>
   </g>
   <g id="patch_33">
    <path d="M 312.609328 511.558125 
L 315.660593 511.558125 
L 315.660593 488.848305 
L 312.609328 488.848305 
z
" clip-path="url(#pb9b24d87b6)" style="fill: #0000ff"/>
   </g>
   <g id="patch_34">
    <path d="M 320.237489 511.558125 
L 323.288754 511.558125 
L 323.288754 491.458629 
L 320.237489 491.458629 
z
" clip-path="url(#pb9b24d87b6)" style="fill: #0000ff"/>
   </g>
   <g id="patch_35">
    <path d="M 327.865651 511.558125 
L 330.916915 511.558125 
L 330.916915 497.201342 
L 327.865651 497.201342 
z
" clip-path="url(#pb9b24d87b6)" style="fill: #0000ff"/>
   </g>
   <g id="patch_36">
    <path d="M 335.493812 511.558125 
L 338.545076 511.558125 
L 338.545076 502.291474 
L 335.493812 502.291474 
z
" clip-path="url(#pb9b24d87b6)" style="fill: #0000ff"/>
   </g>
   <g id="patch_37">
    <path d="M 343.121973 511.558125 
L 346.173238 511.558125 
L 346.173238 501.116828 
L 343.121973 501.116828 
z
" clip-path="url(#pb9b24d87b6)" style="fill: #0000ff"/>
   </g>
   <g id="patch_38">
    <path d="M 350.750135 511.558125 
L 353.801399 511.558125 
L 353.801399 504.51025 
L 350.750135 504.51025 
z
" clip-path="url(#pb9b24d87b6)" style="fill: #0000ff"/>
   </g>
   <g id="patch_39">
    <path d="M 358.378296 511.558125 
L 361.42956 511.558125 
L 361.42956 504.249217 
L 358.378296 504.249217 
z
" clip-path="url(#pb9b24d87b6)" style="fill: #0000ff"/>
   </g>
   <g id="patch_40">
    <path d="M 366.006457 511.558125 
L 369.057722 511.558125 
L 369.057722 507.773155 
L 366.006457 507.773155 
z
" clip-path="url(#pb9b24d87b6)" style="fill: #0000ff"/>
   </g>
   <g id="patch_41">
    <path d="M 373.634619 511.558125 
L 376.685883 511.558125 
L 376.685883 505.423863 
L 373.634619 505.423863 
z
" clip-path="url(#pb9b24d87b6)" style="fill: #0000ff"/>
   </g>
   <g id="patch_42">
    <path d="M 381.26278 511.558125 
L 384.314044 511.558125 
L 384.314044 508.425736 
L 381.26278 508.425736 
z
" clip-path="url(#pb9b24d87b6)" style="fill: #0000ff"/>
   </g>
   <g id="patch_43">
    <path d="M 388.890941 511.558125 
L 391.942206 511.558125 
L 391.942206 508.29522 
L 388.890941 508.29522 
z
" clip-path="url(#pb9b24d87b6)" style="fill: #0000ff"/>
   </g>
   <g id="patch_44">
    <path d="M 396.519102 511.558125 
L 399.570367 511.558125 
L 399.570367 508.425736 
L 396.519102 508.425736 
z
" clip-path="url(#pb9b24d87b6)" style="fill: #0000ff"/>
   </g>
   <g id="patch_45">
    <path d="M 404.147264 511.558125 
L 407.198528 511.558125 
L 407.198528 510.383479 
L 404.147264 510.383479 
z
" clip-path="url(#pb9b24d87b6)" style="fill: #0000ff"/>
   </g>
   <g id="patch_46">
    <path d="M 411.775425 511.558125 
L 414.82669 511.558125 
L 414.82669 509.730898 
L 411.775425 509.730898 
z
" clip-path="url(#pb9b24d87b6)" style="fill: #0000ff"/>
   </g>
   <g id="patch_47">
    <path d="M 419.403586 511.558125 
L 422.454851 511.558125 
L 422.454851 510.644512 
L 419.403586 510.644512 
z
" clip-path="url(#pb9b24d87b6)" style="fill: #0000ff"/>
   </g>
   <g id="patch_48">
    <path d="M 427.031748 511.558125 
L 430.083012 511.558125 
L 430.083012 509.991931 
L 427.031748 509.991931 
z
" clip-path="url(#pb9b24d87b6)" style="fill: #0000ff"/>
   </g>
   <g id="patch_49">
    <path d="M 434.659909 511.558125 
L 437.711174 511.558125 
L 437.711174 510.383479 
L 434.659909 510.383479 
z
" clip-path="url(#pb9b24d87b6)" style="fill: #0000ff"/>
   </g>
   <g id="patch_50">
    <path d="M 442.28807 511.558125 
L 445.339335 511.558125 
L 445.339335 511.166576 
L 442.28807 511.166576 
z
" clip-path="url(#pb9b24d87b6)" style="fill: #0000ff"/>
   </g>
   <g id="patch_51">
    <path d="M 449.916232 511.558125 
L 452.967496 511.558125 
L 452.967496 511.03606 
L 449.916232 511.03606 
z
" clip-path="url(#pb9b24d87b6)" style="fill: #0000ff"/>
   </g>
   <g id="patch_52">
    <path d="M 457.544393 511.558125 
L 460.595657 511.558125 
L 460.595657 510.775028 
L 457.544393 510.775028 
z
" clip-path="url(#pb9b24d87b6)" style="fill: #0000ff"/>
   </g>
   <g id="patch_53">
    <path d="M 465.172554 511.558125 
L 468.223819 511.558125 
L 468.223819 511.297093 
L 465.172554 511.297093 
z
" clip-path="url(#pb9b24d87b6)" style="fill: #0000ff"/>
   </g>
   <g id="patch_54">
    <path d="M 472.800716 511.558125 
L 475.85198 511.558125 
L 475.85198 511.297093 
L 472.800716 511.297093 
z
" clip-path="url(#pb9b24d87b6)" style="fill: #0000ff"/>
   </g>
   <g id="patch_55">
    <path d="M 480.428877 511.558125 
L 483.480141 511.558125 
L 483.480141 511.427609 
L 480.428877 511.427609 
z
" clip-path="url(#pb9b24d87b6)" style="fill: #0000ff"/>
   </g>
   <g id="patch_56">
    <path d="M 488.057038 511.558125 
L 491.108303 511.558125 
L 491.108303 511.427609 
L 488.057038 511.427609 
z
" clip-path="url(#pb9b24d87b6)" style="fill: #0000ff"/>
   </g>
   <g id="patch_57">
    <path d="M 495.6852 511.558125 
L 498.736464 511.558125 
L 498.736464 511.558125 
L 495.6852 511.558125 
z
" clip-path="url(#pb9b24d87b6)" style="fill: #0000ff"/>
   </g>
   <g id="patch_58">
    <path d="M 503.313361 511.558125 
L 506.364625 511.558125 
L 506.364625 511.297093 
L 503.313361 511.297093 
z
" clip-path="url(#pb9b24d87b6)" style="fill: #0000ff"/>
   </g>
   <g id="patch_59">
    <path d="M 510.941522 511.558125 
L 513.992787 511.558125 
L 513.992787 511.427609 
L 510.941522 511.427609 
z
" clip-path="url(#pb9b24d87b6)" style="fill: #0000ff"/>
   </g>
   <g id="patch_60">
    <path d="M 518.569683 511.558125 
L 521.620948 511.558125 
L 521.620948 511.427609 
L 518.569683 511.427609 
z
" clip-path="url(#pb9b24d87b6)" style="fill: #0000ff"/>
   </g>
   <g id="patch_61">
    <path d="M 526.197845 511.558125 
L 529.249109 511.558125 
L 529.249109 511.558125 
L 526.197845 511.558125 
z
" clip-path="url(#pb9b24d87b6)" style="fill: #0000ff"/>
   </g>
   <g id="patch_62">
    <path d="M 533.826006 511.558125 
L 536.877271 511.558125 
L 536.877271 511.03606 
L 533.826006 511.03606 
z
" clip-path="url(#pb9b24d87b6)" style="fill: #0000ff"/>
   </g>
   <g id="patch_63">
    <path d="M 541.454167 511.558125 
L 544.505432 511.558125 
L 544.505432 511.297093 
L 541.454167 511.297093 
z
" clip-path="url(#pb9b24d87b6)" style="fill: #0000ff"/>
   </g>
   <g id="patch_64">
    <path d="M 549.082329 511.558125 
L 552.133593 511.558125 
L 552.133593 510.383479 
L 549.082329 510.383479 
z
" clip-path="url(#pb9b24d87b6)" style="fill: #0000ff"/>
   </g>
   <g id="patch_65">
    <path d="M 556.71049 511.558125 
L 559.761755 511.558125 
L 559.761755 511.558125 
L 556.71049 511.558125 
z
" clip-path="url(#pb9b24d87b6)" style="fill: #0000ff"/>
   </g>
   <g id="patch_66">
    <path d="M 564.338651 511.558125 
L 567.389916 511.558125 
L 567.389916 511.166576 
L 564.338651 511.166576 
z
" clip-path="url(#pb9b24d87b6)" style="fill: #0000ff"/>
   </g>
   <g id="patch_67">
    <path d="M 571.966813 511.558125 
L 575.018077 511.558125 
L 575.018077 511.297093 
L 571.966813 511.297093 
z
" clip-path="url(#pb9b24d87b6)" style="fill: #0000ff"/>
   </g>
   <g id="patch_68">
    <path d="M 579.594974 511.558125 
L 582.646238 511.558125 
L 582.646238 510.122447 
L 579.594974 510.122447 
z
" clip-path="url(#pb9b24d87b6)" style="fill: #0000ff"/>
   </g>
   <g id="patch_69">
    <path d="M 587.223135 511.558125 
L 590.2744 511.558125 
L 590.2744 511.558125 
L 587.223135 511.558125 
z
" clip-path="url(#pb9b24d87b6)" style="fill: #0000ff"/>
   </g>
   <g id="patch_70">
    <path d="M 594.851297 511.558125 
L 597.902561 511.558125 
L 597.902561 509.861414 
L 594.851297 509.861414 
z
" clip-path="url(#pb9b24d87b6)" style="fill: #0000ff"/>
   </g>
   <g id="patch_71">
    <path d="M 602.479458 511.558125 
L 605.530722 511.558125 
L 605.530722 511.558125 
L 602.479458 511.558125 
z
" clip-path="url(#pb9b24d87b6)" style="fill: #0000ff"/>
   </g>
   <g id="patch_72">
    <path d="M 610.107619 511.558125 
L 613.158884 511.558125 
L 613.158884 511.297093 
L 610.107619 511.297093 
z
" clip-path="url(#pb9b24d87b6)" style="fill: #0000ff"/>
   </g>
   <g id="patch_73">
    <path d="M 617.735781 511.558125 
L 620.787045 511.558125 
L 620.787045 510.905544 
L 617.735781 510.905544 
z
" clip-path="url(#pb9b24d87b6)" style="fill: #0000ff"/>
   </g>
   <g id="patch_74">
    <path d="M 625.363942 511.558125 
L 628.415206 511.558125 
L 628.415206 511.558125 
L 625.363942 511.558125 
z
" clip-path="url(#pb9b24d87b6)" style="fill: #0000ff"/>
   </g>
   <g id="patch_75">
    <path d="M 632.992103 511.558125 
L 636.043368 511.558125 
L 636.043368 510.513995 
L 632.992103 510.513995 
z
" clip-path="url(#pb9b24d87b6)" style="fill: #0000ff"/>
   </g>
   <g id="patch_76">
    <path d="M 640.620264 511.558125 
L 643.671529 511.558125 
L 643.671529 511.558125 
L 640.620264 511.558125 
z
" clip-path="url(#pb9b24d87b6)" style="fill: #0000ff"/>
   </g>
   <g id="patch_77">
    <path d="M 648.248426 511.558125 
L 651.29969 511.558125 
L 651.29969 511.427609 
L 648.248426 511.427609 
z
" clip-path="url(#pb9b24d87b6)" style="fill: #0000ff"/>
   </g>
   <g id="patch_78">
    <path d="M 655.876587 511.558125 
L 658.927852 511.558125 
L 658.927852 511.03606 
L 655.876587 511.03606 
z
" clip-path="url(#pb9b24d87b6)" style="fill: #0000ff"/>
   </g>
   <g id="patch_79">
    <path d="M 663.504748 511.558125 
L 666.556013 511.558125 
L 666.556013 511.427609 
L 663.504748 511.427609 
z
" clip-path="url(#pb9b24d87b6)" style="fill: #0000ff"/>
   </g>
   <g id="patch_80">
    <path d="M 671.13291 511.558125 
L 674.184174 511.558125 
L 674.184174 511.03606 
L 671.13291 511.03606 
z
" clip-path="url(#pb9b24d87b6)" style="fill: #0000ff"/>
   </g>
   <g id="patch_81">
    <path d="M 678.761071 511.558125 
L 681.812336 511.558125 
L 681.812336 511.166576 
L 678.761071 511.166576 
z
" clip-path="url(#pb9b24d87b6)" style="fill: #0000ff"/>
   </g>
   <g id="patch_82">
    <path d="M 686.389232 511.558125 
L 689.440497 511.558125 
L 689.440497 511.427609 
L 686.389232 511.427609 
z
" clip-path="url(#pb9b24d87b6)" style="fill: #0000ff"/>
   </g>
   <g id="patch_83">
    <path d="M 86.815753 511.558125 
L 89.867018 511.558125 
L 89.867018 511.558125 
L 86.815753 511.558125 
z
" clip-path="url(#pb9b24d87b6)" style="fill: #ff0000"/>
   </g>
   <g id="patch_84">
    <path d="M 94.443914 511.558125 
L 97.495179 511.558125 
L 97.495179 511.297093 
L 94.443914 511.297093 
z
" clip-path="url(#pb9b24d87b6)" style="fill: #ff0000"/>
   </g>
   <g id="patch_85">
    <path d="M 102.072076 511.558125 
L 105.12334 511.558125 
L 105.12334 511.03606 
L 102.072076 511.03606 
z
" clip-path="url(#pb9b24d87b6)" style="fill: #ff0000"/>
   </g>
   <g id="patch_86">
    <path d="M 109.700237 511.558125 
L 112.751502 511.558125 
L 112.751502 509.991931 
L 109.700237 509.991931 
z
" clip-path="url(#pb9b24d87b6)" style="fill: #ff0000"/>
   </g>
   <g id="patch_87">
    <path d="M 117.328398 511.558125 
L 120.379663 511.558125 
L 120.379663 508.947801 
L 117.328398 508.947801 
z
" clip-path="url(#pb9b24d87b6)" style="fill: #ff0000"/>
   </g>
   <g id="patch_88">
    <path d="M 124.95656 511.558125 
L 128.007824 511.558125 
L 128.007824 505.293347 
L 124.95656 505.293347 
z
" clip-path="url(#pb9b24d87b6)" style="fill: #ff0000"/>
   </g>
   <g id="patch_89">
    <path d="M 132.584721 511.558125 
L 135.635986 511.558125 
L 135.635986 500.72528 
L 132.584721 500.72528 
z
" clip-path="url(#pb9b24d87b6)" style="fill: #ff0000"/>
   </g>
   <g id="patch_90">
    <path d="M 140.212882 511.558125 
L 143.264147 511.558125 
L 143.264147 493.938437 
L 140.212882 493.938437 
z
" clip-path="url(#pb9b24d87b6)" style="fill: #ff0000"/>
   </g>
   <g id="patch_91">
    <path d="M 147.841044 511.558125 
L 150.892308 511.558125 
L 150.892308 480.103719 
L 147.841044 480.103719 
z
" clip-path="url(#pb9b24d87b6)" style="fill: #ff0000"/>
   </g>
   <g id="patch_92">
    <path d="M 155.469205 511.558125 
L 158.520469 511.558125 
L 158.520469 449.040862 
L 155.469205 449.040862 
z
" clip-path="url(#pb9b24d87b6)" style="fill: #ff0000"/>
   </g>
   <g id="patch_93">
    <path d="M 163.097366 511.558125 
L 166.148631 511.558125 
L 166.148631 421.371426 
L 163.097366 421.371426 
z
" clip-path="url(#pb9b24d87b6)" style="fill: #ff0000"/>
   </g>
   <g id="patch_94">
    <path d="M 170.725528 511.558125 
L 173.776792 511.558125 
L 173.776792 392.396828 
L 170.725528 392.396828 
z
" clip-path="url(#pb9b24d87b6)" style="fill: #ff0000"/>
   </g>
   <g id="patch_95">
    <path d="M 178.353689 511.558125 
L 181.404953 511.558125 
L 181.404953 319.829818 
L 178.353689 319.829818 
z
" clip-path="url(#pb9b24d87b6)" style="fill: #ff0000"/>
   </g>
   <g id="patch_96">
    <path d="M 185.98185 511.558125 
L 189.033115 511.558125 
L 189.033115 322.179109 
L 185.98185 322.179109 
z
" clip-path="url(#pb9b24d87b6)" style="fill: #ff0000"/>
   </g>
   <g id="patch_97">
    <path d="M 193.610012 511.558125 
L 196.661276 511.558125 
L 196.661276 250.26468 
L 193.610012 250.26468 
z
" clip-path="url(#pb9b24d87b6)" style="fill: #ff0000"/>
   </g>
   <g id="patch_98">
    <path d="M 201.238173 511.558125 
L 204.289437 511.558125 
L 204.289437 151.724944 
L 201.238173 151.724944 
z
" clip-path="url(#pb9b24d87b6)" style="fill: #ff0000"/>
   </g>
   <g id="patch_99">
    <path d="M 208.866334 511.558125 
L 211.917599 511.558125 
L 211.917599 217.766144 
L 208.866334 217.766144 
z
" clip-path="url(#pb9b24d87b6)" style="fill: #ff0000"/>
   </g>
   <g id="patch_100">
    <path d="M 216.494495 511.558125 
L 219.54576 511.558125 
L 219.54576 220.376468 
L 216.494495 220.376468 
z
" clip-path="url(#pb9b24d87b6)" style="fill: #ff0000"/>
   </g>
   <g id="patch_101">
    <path d="M 224.122657 511.558125 
L 227.173921 511.558125 
L 227.173921 208.499494 
L 224.122657 208.499494 
z
" clip-path="url(#pb9b24d87b6)" style="fill: #ff0000"/>
   </g>
   <g id="patch_102">
    <path d="M 231.750818 511.558125 
L 234.802083 511.558125 
L 234.802083 235.907897 
L 231.750818 235.907897 
z
" clip-path="url(#pb9b24d87b6)" style="fill: #ff0000"/>
   </g>
   <g id="patch_103">
    <path d="M 239.378979 511.558125 
L 242.430244 511.558125 
L 242.430244 234.863767 
L 239.378979 234.863767 
z
" clip-path="url(#pb9b24d87b6)" style="fill: #ff0000"/>
   </g>
   <g id="patch_104">
    <path d="M 247.007141 511.558125 
L 250.058405 511.558125 
L 250.058405 245.305064 
L 247.007141 245.305064 
z
" clip-path="url(#pb9b24d87b6)" style="fill: #ff0000"/>
   </g>
   <g id="patch_105">
    <path d="M 254.635302 511.558125 
L 257.686567 511.558125 
L 257.686567 291.377285 
L 254.635302 291.377285 
z
" clip-path="url(#pb9b24d87b6)" style="fill: #ff0000"/>
   </g>
   <g id="patch_106">
    <path d="M 262.263463 511.558125 
L 265.314728 511.558125 
L 265.314728 323.092723 
L 262.263463 323.092723 
z
" clip-path="url(#pb9b24d87b6)" style="fill: #ff0000"/>
   </g>
   <g id="patch_107">
    <path d="M 269.891625 511.558125 
L 272.942889 511.558125 
L 272.942889 349.718029 
L 269.891625 349.718029 
z
" clip-path="url(#pb9b24d87b6)" style="fill: #ff0000"/>
   </g>
   <g id="patch_108">
    <path d="M 277.519786 511.558125 
L 280.57105 511.558125 
L 280.57105 365.641006 
L 277.519786 365.641006 
z
" clip-path="url(#pb9b24d87b6)" style="fill: #ff0000"/>
   </g>
   <g id="patch_109">
    <path d="M 285.147947 511.558125 
L 288.199212 511.558125 
L 288.199212 379.475724 
L 285.147947 379.475724 
z
" clip-path="url(#pb9b24d87b6)" style="fill: #ff0000"/>
   </g>
   <g id="patch_110">
    <path d="M 292.776109 511.558125 
L 295.827373 511.558125 
L 295.827373 399.966768 
L 292.776109 399.966768 
z
" clip-path="url(#pb9b24d87b6)" style="fill: #ff0000"/>
   </g>
   <g id="patch_111">
    <path d="M 300.40427 511.558125 
L 303.455534 511.558125 
L 303.455534 417.064392 
L 300.40427 417.064392 
z
" clip-path="url(#pb9b24d87b6)" style="fill: #ff0000"/>
   </g>
   <g id="patch_112">
    <path d="M 308.032431 511.558125 
L 311.083696 511.558125 
L 311.083696 443.95073 
L 308.032431 443.95073 
z
" clip-path="url(#pb9b24d87b6)" style="fill: #ff0000"/>
   </g>
   <g id="patch_113">
    <path d="M 315.660593 511.558125 
L 318.711857 511.558125 
L 318.711857 444.733827 
L 315.660593 444.733827 
z
" clip-path="url(#pb9b24d87b6)" style="fill: #ff0000"/>
   </g>
   <g id="patch_114">
    <path d="M 323.288754 511.558125 
L 326.340018 511.558125 
L 326.340018 444.864343 
L 323.288754 444.864343 
z
" clip-path="url(#pb9b24d87b6)" style="fill: #ff0000"/>
   </g>
   <g id="patch_115">
    <path d="M 330.916915 511.558125 
L 333.96818 511.558125 
L 333.96818 466.399518 
L 330.916915 466.399518 
z
" clip-path="url(#pb9b24d87b6)" style="fill: #ff0000"/>
   </g>
   <g id="patch_116">
    <path d="M 338.545076 511.558125 
L 341.596341 511.558125 
L 341.596341 472.142231 
L 338.545076 472.142231 
z
" clip-path="url(#pb9b24d87b6)" style="fill: #ff0000"/>
   </g>
   <g id="patch_117">
    <path d="M 346.173238 511.558125 
L 349.224502 511.558125 
L 349.224502 475.144103 
L 346.173238 475.144103 
z
" clip-path="url(#pb9b24d87b6)" style="fill: #ff0000"/>
   </g>
   <g id="patch_118">
    <path d="M 353.801399 511.558125 
L 356.852664 511.558125 
L 356.852664 483.105592 
L 353.801399 483.105592 
z
" clip-path="url(#pb9b24d87b6)" style="fill: #ff0000"/>
   </g>
   <g id="patch_119">
    <path d="M 361.42956 511.558125 
L 364.480825 511.558125 
L 364.480825 488.065208 
L 361.42956 488.065208 
z
" clip-path="url(#pb9b24d87b6)" style="fill: #ff0000"/>
   </g>
   <g id="patch_120">
    <path d="M 369.057722 511.558125 
L 372.108986 511.558125 
L 372.108986 489.892435 
L 369.057722 489.892435 
z
" clip-path="url(#pb9b24d87b6)" style="fill: #ff0000"/>
   </g>
   <g id="patch_121">
    <path d="M 376.685883 511.558125 
L 379.737148 511.558125 
L 379.737148 492.241726 
L 376.685883 492.241726 
z
" clip-path="url(#pb9b24d87b6)" style="fill: #ff0000"/>
   </g>
   <g id="patch_122">
    <path d="M 384.314044 511.558125 
L 387.365309 511.558125 
L 387.365309 498.767537 
L 384.314044 498.767537 
z
" clip-path="url(#pb9b24d87b6)" style="fill: #ff0000"/>
   </g>
   <g id="patch_123">
    <path d="M 391.942206 511.558125 
L 394.99347 511.558125 
L 394.99347 500.333731 
L 391.942206 500.333731 
z
" clip-path="url(#pb9b24d87b6)" style="fill: #ff0000"/>
   </g>
   <g id="patch_124">
    <path d="M 399.570367 511.558125 
L 402.621631 511.558125 
L 402.621631 500.464247 
L 399.570367 500.464247 
z
" clip-path="url(#pb9b24d87b6)" style="fill: #ff0000"/>
   </g>
   <g id="patch_125">
    <path d="M 407.198528 511.558125 
L 410.249793 511.558125 
L 410.249793 505.293347 
L 407.198528 505.293347 
z
" clip-path="url(#pb9b24d87b6)" style="fill: #ff0000"/>
   </g>
   <g id="patch_126">
    <path d="M 414.82669 511.558125 
L 417.877954 511.558125 
L 417.877954 503.074572 
L 414.82669 503.074572 
z
" clip-path="url(#pb9b24d87b6)" style="fill: #ff0000"/>
   </g>
   <g id="patch_127">
    <path d="M 422.454851 511.558125 
L 425.506115 511.558125 
L 425.506115 505.945928 
L 422.454851 505.945928 
z
" clip-path="url(#pb9b24d87b6)" style="fill: #ff0000"/>
   </g>
   <g id="patch_128">
    <path d="M 430.083012 511.558125 
L 433.134277 511.558125 
L 433.134277 508.29522 
L 430.083012 508.29522 
z
" clip-path="url(#pb9b24d87b6)" style="fill: #ff0000"/>
   </g>
   <g id="patch_129">
    <path d="M 437.711174 511.558125 
L 440.762438 511.558125 
L 440.762438 506.990058 
L 437.711174 506.990058 
z
" clip-path="url(#pb9b24d87b6)" style="fill: #ff0000"/>
   </g>
   <g id="patch_130">
    <path d="M 445.339335 511.558125 
L 448.390599 511.558125 
L 448.390599 508.686768 
L 445.339335 508.686768 
z
" clip-path="url(#pb9b24d87b6)" style="fill: #ff0000"/>
   </g>
   <g id="patch_131">
    <path d="M 452.967496 511.558125 
L 456.018761 511.558125 
L 456.018761 508.29522 
L 452.967496 508.29522 
z
" clip-path="url(#pb9b24d87b6)" style="fill: #ff0000"/>
   </g>
   <g id="patch_132">
    <path d="M 460.595657 511.558125 
L 463.646922 511.558125 
L 463.646922 509.730898 
L 460.595657 509.730898 
z
" clip-path="url(#pb9b24d87b6)" style="fill: #ff0000"/>
   </g>
   <g id="patch_133">
    <path d="M 468.223819 511.558125 
L 471.275083 511.558125 
L 471.275083 509.469866 
L 468.223819 509.469866 
z
" clip-path="url(#pb9b24d87b6)" style="fill: #ff0000"/>
   </g>
   <g id="patch_134">
    <path d="M 475.85198 511.558125 
L 478.903245 511.558125 
L 478.903245 509.208833 
L 475.85198 509.208833 
z
" clip-path="url(#pb9b24d87b6)" style="fill: #ff0000"/>
   </g>
   <g id="patch_135">
    <path d="M 483.480141 511.558125 
L 486.531406 511.558125 
L 486.531406 510.513995 
L 483.480141 510.513995 
z
" clip-path="url(#pb9b24d87b6)" style="fill: #ff0000"/>
   </g>
   <g id="patch_136">
    <path d="M 491.108303 511.558125 
L 494.159567 511.558125 
L 494.159567 510.252963 
L 491.108303 510.252963 
z
" clip-path="url(#pb9b24d87b6)" style="fill: #ff0000"/>
   </g>
   <g id="patch_137">
    <path d="M 498.736464 511.558125 
L 501.787729 511.558125 
L 501.787729 510.383479 
L 498.736464 510.383479 
z
" clip-path="url(#pb9b24d87b6)" style="fill: #ff0000"/>
   </g>
   <g id="patch_138">
    <path d="M 506.364625 511.558125 
L 509.41589 511.558125 
L 509.41589 510.775028 
L 506.364625 510.775028 
z
" clip-path="url(#pb9b24d87b6)" style="fill: #ff0000"/>
   </g>
   <g id="patch_139">
    <path d="M 513.992787 511.558125 
L 517.044051 511.558125 
L 517.044051 510.775028 
L 513.992787 510.775028 
z
" clip-path="url(#pb9b24d87b6)" style="fill: #ff0000"/>
   </g>
   <g id="patch_140">
    <path d="M 521.620948 511.558125 
L 524.672212 511.558125 
L 524.672212 511.166576 
L 521.620948 511.166576 
z
" clip-path="url(#pb9b24d87b6)" style="fill: #ff0000"/>
   </g>
   <g id="patch_141">
    <path d="M 529.249109 511.558125 
L 532.300374 511.558125 
L 532.300374 510.905544 
L 529.249109 510.905544 
z
" clip-path="url(#pb9b24d87b6)" style="fill: #ff0000"/>
   </g>
   <g id="patch_142">
    <path d="M 536.877271 511.558125 
L 539.928535 511.558125 
L 539.928535 510.905544 
L 536.877271 510.905544 
z
" clip-path="url(#pb9b24d87b6)" style="fill: #ff0000"/>
   </g>
   <g id="patch_143">
    <path d="M 544.505432 511.558125 
L 547.556696 511.558125 
L 547.556696 510.644512 
L 544.505432 510.644512 
z
" clip-path="url(#pb9b24d87b6)" style="fill: #ff0000"/>
   </g>
   <g id="patch_144">
    <path d="M 552.133593 511.558125 
L 555.184858 511.558125 
L 555.184858 511.166576 
L 552.133593 511.166576 
z
" clip-path="url(#pb9b24d87b6)" style="fill: #ff0000"/>
   </g>
   <g id="patch_145">
    <path d="M 559.761755 511.558125 
L 562.813019 511.558125 
L 562.813019 511.427609 
L 559.761755 511.427609 
z
" clip-path="url(#pb9b24d87b6)" style="fill: #ff0000"/>
   </g>
   <g id="patch_146">
    <path d="M 567.389916 511.558125 
L 570.44118 511.558125 
L 570.44118 510.775028 
L 567.389916 510.775028 
z
" clip-path="url(#pb9b24d87b6)" style="fill: #ff0000"/>
   </g>
   <g id="patch_147">
    <path d="M 575.018077 511.558125 
L 578.069342 511.558125 
L 578.069342 511.558125 
L 575.018077 511.558125 
z
" clip-path="url(#pb9b24d87b6)" style="fill: #ff0000"/>
   </g>
   <g id="patch_148">
    <path d="M 582.646238 511.558125 
L 585.697503 511.558125 
L 585.697503 510.644512 
L 582.646238 510.644512 
z
" clip-path="url(#pb9b24d87b6)" style="fill: #ff0000"/>
   </g>
   <g id="patch_149">
    <path d="M 590.2744 511.558125 
L 593.325664 511.558125 
L 593.325664 511.427609 
L 590.2744 511.427609 
z
" clip-path="url(#pb9b24d87b6)" style="fill: #ff0000"/>
   </g>
   <g id="patch_150">
    <path d="M 597.902561 511.558125 
L 600.953826 511.558125 
L 600.953826 511.03606 
L 597.902561 511.03606 
z
" clip-path="url(#pb9b24d87b6)" style="fill: #ff0000"/>
   </g>
   <g id="patch_151">
    <path d="M 605.530722 511.558125 
L 608.581987 511.558125 
L 608.581987 511.427609 
L 605.530722 511.427609 
z
" clip-path="url(#pb9b24d87b6)" style="fill: #ff0000"/>
   </g>
   <g id="patch_152">
    <path d="M 613.158884 511.558125 
L 616.210148 511.558125 
L 616.210148 510.644512 
L 613.158884 510.644512 
z
" clip-path="url(#pb9b24d87b6)" style="fill: #ff0000"/>
   </g>
   <g id="patch_153">
    <path d="M 620.787045 511.558125 
L 623.83831 511.558125 
L 623.83831 510.775028 
L 620.787045 510.775028 
z
" clip-path="url(#pb9b24d87b6)" style="fill: #ff0000"/>
   </g>
   <g id="patch_154">
    <path d="M 628.415206 511.558125 
L 631.466471 511.558125 
L 631.466471 511.427609 
L 628.415206 511.427609 
z
" clip-path="url(#pb9b24d87b6)" style="fill: #ff0000"/>
   </g>
   <g id="patch_155">
    <path d="M 636.043368 511.558125 
L 639.094632 511.558125 
L 639.094632 510.905544 
L 636.043368 510.905544 
z
" clip-path="url(#pb9b24d87b6)" style="fill: #ff0000"/>
   </g>
   <g id="patch_156">
    <path d="M 643.671529 511.558125 
L 646.722793 511.558125 
L 646.722793 511.427609 
L 643.671529 511.427609 
z
" clip-path="url(#pb9b24d87b6)" style="fill: #ff0000"/>
   </g>
   <g id="patch_157">
    <path d="M 651.29969 511.558125 
L 654.350955 511.558125 
L 654.350955 511.558125 
L 651.29969 511.558125 
z
" clip-path="url(#pb9b24d87b6)" style="fill: #ff0000"/>
   </g>
   <g id="patch_158">
    <path d="M 658.927852 511.558125 
L 661.979116 511.558125 
L 661.979116 510.383479 
L 658.927852 510.383479 
z
" clip-path="url(#pb9b24d87b6)" style="fill: #ff0000"/>
   </g>
   <g id="patch_159">
    <path d="M 666.556013 511.558125 
L 669.607277 511.558125 
L 669.607277 511.166576 
L 666.556013 511.166576 
z
" clip-path="url(#pb9b24d87b6)" style="fill: #ff0000"/>
   </g>
   <g id="patch_160">
    <path d="M 674.184174 511.558125 
L 677.235439 511.558125 
L 677.235439 510.905544 
L 674.184174 510.905544 
z
" clip-path="url(#pb9b24d87b6)" style="fill: #ff0000"/>
   </g>
   <g id="patch_161">
    <path d="M 681.812336 511.558125 
L 684.8636 511.558125 
L 684.8636 511.427609 
L 681.812336 511.427609 
z
" clip-path="url(#pb9b24d87b6)" style="fill: #ff0000"/>
   </g>
   <g id="patch_162">
    <path d="M 689.440497 511.558125 
L 692.491761 511.558125 
L 692.491761 511.166576 
L 689.440497 511.166576 
z
" clip-path="url(#pb9b24d87b6)" style="fill: #ff0000"/>
   </g>
   <g id="matplotlib.axis_1">
    <g id="xtick_1">
     <g id="line2d_1">
      <defs>
       <path id="mf998062f86" d="M 0 0 
L 0 3.5 
" style="stroke: #000000; stroke-width: 0.8"/>
      </defs>
      <g>
       <use xlink:href="#mf998062f86" x="86.815753" y="511.558125" style="stroke: #000000; stroke-width: 0.8"/>
      </g>
     </g>
     <g id="text_1">
      <!-- 12 -->
      <g transform="translate(80.453253 526.156562)scale(0.1 -0.1)">
       <defs>
        <path id="DejaVuSans-31" d="M 794 531 
L 1825 531 
L 1825 4091 
L 703 3866 
L 703 4441 
L 1819 4666 
L 2450 4666 
L 2450 531 
L 3481 531 
L 3481 0 
L 794 0 
L 794 531 
z
" transform="scale(0.015625)"/>
        <path id="DejaVuSans-32" d="M 1228 531 
L 3431 531 
L 3431 0 
L 469 0 
L 469 531 
Q 828 903 1448 1529 
Q 2069 2156 2228 2338 
Q 2531 2678 2651 2914 
Q 2772 3150 2772 3378 
Q 2772 3750 2511 3984 
Q 2250 4219 1831 4219 
Q 1534 4219 1204 4116 
Q 875 4013 500 3803 
L 500 4441 
Q 881 4594 1212 4672 
Q 1544 4750 1819 4750 
Q 2544 4750 2975 4387 
Q 3406 4025 3406 3419 
Q 3406 3131 3298 2873 
Q 3191 2616 2906 2266 
Q 2828 2175 2409 1742 
Q 1991 1309 1228 531 
z
" transform="scale(0.015625)"/>
       </defs>
       <use xlink:href="#DejaVuSans-31"/>
       <use xlink:href="#DejaVuSans-32" x="63.623047"/>
      </g>
     </g>
    </g>
    <g id="xtick_2">
     <g id="line2d_2">
      <g>
       <use xlink:href="#mf998062f86" x="117.328398" y="511.558125" style="stroke: #000000; stroke-width: 0.8"/>
      </g>
     </g>
     <g id="text_2">
      <!-- 16 -->
      <g transform="translate(110.965898 526.156562)scale(0.1 -0.1)">
       <defs>
        <path id="DejaVuSans-36" d="M 2113 2584 
Q 1688 2584 1439 2293 
Q 1191 2003 1191 1497 
Q 1191 994 1439 701 
Q 1688 409 2113 409 
Q 2538 409 2786 701 
Q 3034 994 3034 1497 
Q 3034 2003 2786 2293 
Q 2538 2584 2113 2584 
z
M 3366 4563 
L 3366 3988 
Q 3128 4100 2886 4159 
Q 2644 4219 2406 4219 
Q 1781 4219 1451 3797 
Q 1122 3375 1075 2522 
Q 1259 2794 1537 2939 
Q 1816 3084 2150 3084 
Q 2853 3084 3261 2657 
Q 3669 2231 3669 1497 
Q 3669 778 3244 343 
Q 2819 -91 2113 -91 
Q 1303 -91 875 529 
Q 447 1150 447 2328 
Q 447 3434 972 4092 
Q 1497 4750 2381 4750 
Q 2619 4750 2861 4703 
Q 3103 4656 3366 4563 
z
" transform="scale(0.015625)"/>
       </defs>
       <use xlink:href="#DejaVuSans-31"/>
       <use xlink:href="#DejaVuSans-36" x="63.623047"/>
      </g>
     </g>
    </g>
    <g id="xtick_3">
     <g id="line2d_3">
      <g>
       <use xlink:href="#mf998062f86" x="147.841044" y="511.558125" style="stroke: #000000; stroke-width: 0.8"/>
      </g>
     </g>
     <g id="text_3">
      <!-- 20 -->
      <g transform="translate(141.478544 526.156562)scale(0.1 -0.1)">
       <defs>
        <path id="DejaVuSans-30" d="M 2034 4250 
Q 1547 4250 1301 3770 
Q 1056 3291 1056 2328 
Q 1056 1369 1301 889 
Q 1547 409 2034 409 
Q 2525 409 2770 889 
Q 3016 1369 3016 2328 
Q 3016 3291 2770 3770 
Q 2525 4250 2034 4250 
z
M 2034 4750 
Q 2819 4750 3233 4129 
Q 3647 3509 3647 2328 
Q 3647 1150 3233 529 
Q 2819 -91 2034 -91 
Q 1250 -91 836 529 
Q 422 1150 422 2328 
Q 422 3509 836 4129 
Q 1250 4750 2034 4750 
z
" transform="scale(0.015625)"/>
       </defs>
       <use xlink:href="#DejaVuSans-32"/>
       <use xlink:href="#DejaVuSans-30" x="63.623047"/>
      </g>
     </g>
    </g>
    <g id="xtick_4">
     <g id="line2d_4">
      <g>
       <use xlink:href="#mf998062f86" x="178.353689" y="511.558125" style="stroke: #000000; stroke-width: 0.8"/>
      </g>
     </g>
     <g id="text_4">
      <!-- 24 -->
      <g transform="translate(171.991189 526.156562)scale(0.1 -0.1)">
       <defs>
        <path id="DejaVuSans-34" d="M 2419 4116 
L 825 1625 
L 2419 1625 
L 2419 4116 
z
M 2253 4666 
L 3047 4666 
L 3047 1625 
L 3713 1625 
L 3713 1100 
L 3047 1100 
L 3047 0 
L 2419 0 
L 2419 1100 
L 313 1100 
L 313 1709 
L 2253 4666 
z
" transform="scale(0.015625)"/>
       </defs>
       <use xlink:href="#DejaVuSans-32"/>
       <use xlink:href="#DejaVuSans-34" x="63.623047"/>
      </g>
     </g>
    </g>
    <g id="xtick_5">
     <g id="line2d_5">
      <g>
       <use xlink:href="#mf998062f86" x="208.866334" y="511.558125" style="stroke: #000000; stroke-width: 0.8"/>
      </g>
     </g>
     <g id="text_5">
      <!-- 28 -->
      <g transform="translate(202.503834 526.156562)scale(0.1 -0.1)">
       <defs>
        <path id="DejaVuSans-38" d="M 2034 2216 
Q 1584 2216 1326 1975 
Q 1069 1734 1069 1313 
Q 1069 891 1326 650 
Q 1584 409 2034 409 
Q 2484 409 2743 651 
Q 3003 894 3003 1313 
Q 3003 1734 2745 1975 
Q 2488 2216 2034 2216 
z
M 1403 2484 
Q 997 2584 770 2862 
Q 544 3141 544 3541 
Q 544 4100 942 4425 
Q 1341 4750 2034 4750 
Q 2731 4750 3128 4425 
Q 3525 4100 3525 3541 
Q 3525 3141 3298 2862 
Q 3072 2584 2669 2484 
Q 3125 2378 3379 2068 
Q 3634 1759 3634 1313 
Q 3634 634 3220 271 
Q 2806 -91 2034 -91 
Q 1263 -91 848 271 
Q 434 634 434 1313 
Q 434 1759 690 2068 
Q 947 2378 1403 2484 
z
M 1172 3481 
Q 1172 3119 1398 2916 
Q 1625 2713 2034 2713 
Q 2441 2713 2670 2916 
Q 2900 3119 2900 3481 
Q 2900 3844 2670 4047 
Q 2441 4250 2034 4250 
Q 1625 4250 1398 4047 
Q 1172 3844 1172 3481 
z
" transform="scale(0.015625)"/>
       </defs>
       <use xlink:href="#DejaVuSans-32"/>
       <use xlink:href="#DejaVuSans-38" x="63.623047"/>
      </g>
     </g>
    </g>
    <g id="xtick_6">
     <g id="line2d_6">
      <g>
       <use xlink:href="#mf998062f86" x="239.378979" y="511.558125" style="stroke: #000000; stroke-width: 0.8"/>
      </g>
     </g>
     <g id="text_6">
      <!-- 32 -->
      <g transform="translate(233.016479 526.156562)scale(0.1 -0.1)">
       <defs>
        <path id="DejaVuSans-33" d="M 2597 2516 
Q 3050 2419 3304 2112 
Q 3559 1806 3559 1356 
Q 3559 666 3084 287 
Q 2609 -91 1734 -91 
Q 1441 -91 1130 -33 
Q 819 25 488 141 
L 488 750 
Q 750 597 1062 519 
Q 1375 441 1716 441 
Q 2309 441 2620 675 
Q 2931 909 2931 1356 
Q 2931 1769 2642 2001 
Q 2353 2234 1838 2234 
L 1294 2234 
L 1294 2753 
L 1863 2753 
Q 2328 2753 2575 2939 
Q 2822 3125 2822 3475 
Q 2822 3834 2567 4026 
Q 2313 4219 1838 4219 
Q 1578 4219 1281 4162 
Q 984 4106 628 3988 
L 628 4550 
Q 988 4650 1302 4700 
Q 1616 4750 1894 4750 
Q 2613 4750 3031 4423 
Q 3450 4097 3450 3541 
Q 3450 3153 3228 2886 
Q 3006 2619 2597 2516 
z
" transform="scale(0.015625)"/>
       </defs>
       <use xlink:href="#DejaVuSans-33"/>
       <use xlink:href="#DejaVuSans-32" x="63.623047"/>
      </g>
     </g>
    </g>
    <g id="xtick_7">
     <g id="line2d_7">
      <g>
       <use xlink:href="#mf998062f86" x="269.891625" y="511.558125" style="stroke: #000000; stroke-width: 0.8"/>
      </g>
     </g>
     <g id="text_7">
      <!-- 36 -->
      <g transform="translate(263.529125 526.156562)scale(0.1 -0.1)">
       <use xlink:href="#DejaVuSans-33"/>
       <use xlink:href="#DejaVuSans-36" x="63.623047"/>
      </g>
     </g>
    </g>
    <g id="xtick_8">
     <g id="line2d_8">
      <g>
       <use xlink:href="#mf998062f86" x="300.40427" y="511.558125" style="stroke: #000000; stroke-width: 0.8"/>
      </g>
     </g>
     <g id="text_8">
      <!-- 40 -->
      <g transform="translate(294.04177 526.156562)scale(0.1 -0.1)">
       <use xlink:href="#DejaVuSans-34"/>
       <use xlink:href="#DejaVuSans-30" x="63.623047"/>
      </g>
     </g>
    </g>
    <g id="xtick_9">
     <g id="line2d_9">
      <g>
       <use xlink:href="#mf998062f86" x="330.916915" y="511.558125" style="stroke: #000000; stroke-width: 0.8"/>
      </g>
     </g>
     <g id="text_9">
      <!-- 44 -->
      <g transform="translate(324.554415 526.156562)scale(0.1 -0.1)">
       <use xlink:href="#DejaVuSans-34"/>
       <use xlink:href="#DejaVuSans-34" x="63.623047"/>
      </g>
     </g>
    </g>
    <g id="xtick_10">
     <g id="line2d_10">
      <g>
       <use xlink:href="#mf998062f86" x="361.42956" y="511.558125" style="stroke: #000000; stroke-width: 0.8"/>
      </g>
     </g>
     <g id="text_10">
      <!-- 48 -->
      <g transform="translate(355.06706 526.156562)scale(0.1 -0.1)">
       <use xlink:href="#DejaVuSans-34"/>
       <use xlink:href="#DejaVuSans-38" x="63.623047"/>
      </g>
     </g>
    </g>
    <g id="xtick_11">
     <g id="line2d_11">
      <g>
       <use xlink:href="#mf998062f86" x="391.942206" y="511.558125" style="stroke: #000000; stroke-width: 0.8"/>
      </g>
     </g>
     <g id="text_11">
      <!-- 52 -->
      <g transform="translate(385.579706 526.156562)scale(0.1 -0.1)">
       <defs>
        <path id="DejaVuSans-35" d="M 691 4666 
L 3169 4666 
L 3169 4134 
L 1269 4134 
L 1269 2991 
Q 1406 3038 1543 3061 
Q 1681 3084 1819 3084 
Q 2600 3084 3056 2656 
Q 3513 2228 3513 1497 
Q 3513 744 3044 326 
Q 2575 -91 1722 -91 
Q 1428 -91 1123 -41 
Q 819 9 494 109 
L 494 744 
Q 775 591 1075 516 
Q 1375 441 1709 441 
Q 2250 441 2565 725 
Q 2881 1009 2881 1497 
Q 2881 1984 2565 2268 
Q 2250 2553 1709 2553 
Q 1456 2553 1204 2497 
Q 953 2441 691 2322 
L 691 4666 
z
" transform="scale(0.015625)"/>
       </defs>
       <use xlink:href="#DejaVuSans-35"/>
       <use xlink:href="#DejaVuSans-32" x="63.623047"/>
      </g>
     </g>
    </g>
    <g id="xtick_12">
     <g id="line2d_12">
      <g>
       <use xlink:href="#mf998062f86" x="422.454851" y="511.558125" style="stroke: #000000; stroke-width: 0.8"/>
      </g>
     </g>
     <g id="text_12">
      <!-- 56 -->
      <g transform="translate(416.092351 526.156562)scale(0.1 -0.1)">
       <use xlink:href="#DejaVuSans-35"/>
       <use xlink:href="#DejaVuSans-36" x="63.623047"/>
      </g>
     </g>
    </g>
    <g id="xtick_13">
     <g id="line2d_13">
      <g>
       <use xlink:href="#mf998062f86" x="452.967496" y="511.558125" style="stroke: #000000; stroke-width: 0.8"/>
      </g>
     </g>
     <g id="text_13">
      <!-- 60 -->
      <g transform="translate(446.604996 526.156562)scale(0.1 -0.1)">
       <use xlink:href="#DejaVuSans-36"/>
       <use xlink:href="#DejaVuSans-30" x="63.623047"/>
      </g>
     </g>
    </g>
    <g id="xtick_14">
     <g id="line2d_14">
      <g>
       <use xlink:href="#mf998062f86" x="483.480141" y="511.558125" style="stroke: #000000; stroke-width: 0.8"/>
      </g>
     </g>
     <g id="text_14">
      <!-- 64 -->
      <g transform="translate(477.117641 526.156562)scale(0.1 -0.1)">
       <use xlink:href="#DejaVuSans-36"/>
       <use xlink:href="#DejaVuSans-34" x="63.623047"/>
      </g>
     </g>
    </g>
    <g id="xtick_15">
     <g id="line2d_15">
      <g>
       <use xlink:href="#mf998062f86" x="513.992787" y="511.558125" style="stroke: #000000; stroke-width: 0.8"/>
      </g>
     </g>
     <g id="text_15">
      <!-- 68 -->
      <g transform="translate(507.630287 526.156562)scale(0.1 -0.1)">
       <use xlink:href="#DejaVuSans-36"/>
       <use xlink:href="#DejaVuSans-38" x="63.623047"/>
      </g>
     </g>
    </g>
    <g id="xtick_16">
     <g id="line2d_16">
      <g>
       <use xlink:href="#mf998062f86" x="544.505432" y="511.558125" style="stroke: #000000; stroke-width: 0.8"/>
      </g>
     </g>
     <g id="text_16">
      <!-- 72 -->
      <g transform="translate(538.142932 526.156562)scale(0.1 -0.1)">
       <defs>
        <path id="DejaVuSans-37" d="M 525 4666 
L 3525 4666 
L 3525 4397 
L 1831 0 
L 1172 0 
L 2766 4134 
L 525 4134 
L 525 4666 
z
" transform="scale(0.015625)"/>
       </defs>
       <use xlink:href="#DejaVuSans-37"/>
       <use xlink:href="#DejaVuSans-32" x="63.623047"/>
      </g>
     </g>
    </g>
    <g id="xtick_17">
     <g id="line2d_17">
      <g>
       <use xlink:href="#mf998062f86" x="575.018077" y="511.558125" style="stroke: #000000; stroke-width: 0.8"/>
      </g>
     </g>
     <g id="text_17">
      <!-- 76 -->
      <g transform="translate(568.655577 526.156562)scale(0.1 -0.1)">
       <use xlink:href="#DejaVuSans-37"/>
       <use xlink:href="#DejaVuSans-36" x="63.623047"/>
      </g>
     </g>
    </g>
    <g id="xtick_18">
     <g id="line2d_18">
      <g>
       <use xlink:href="#mf998062f86" x="605.530722" y="511.558125" style="stroke: #000000; stroke-width: 0.8"/>
      </g>
     </g>
     <g id="text_18">
      <!-- 80 -->
      <g transform="translate(599.168222 526.156562)scale(0.1 -0.1)">
       <use xlink:href="#DejaVuSans-38"/>
       <use xlink:href="#DejaVuSans-30" x="63.623047"/>
      </g>
     </g>
    </g>
    <g id="xtick_19">
     <g id="line2d_19">
      <g>
       <use xlink:href="#mf998062f86" x="636.043368" y="511.558125" style="stroke: #000000; stroke-width: 0.8"/>
      </g>
     </g>
     <g id="text_19">
      <!-- 84 -->
      <g transform="translate(629.680868 526.156562)scale(0.1 -0.1)">
       <use xlink:href="#DejaVuSans-38"/>
       <use xlink:href="#DejaVuSans-34" x="63.623047"/>
      </g>
     </g>
    </g>
    <g id="xtick_20">
     <g id="line2d_20">
      <g>
       <use xlink:href="#mf998062f86" x="666.556013" y="511.558125" style="stroke: #000000; stroke-width: 0.8"/>
      </g>
     </g>
     <g id="text_20">
      <!-- 89 -->
      <g transform="translate(660.193513 526.156562)scale(0.1 -0.1)">
       <defs>
        <path id="DejaVuSans-39" d="M 703 97 
L 703 672 
Q 941 559 1184 500 
Q 1428 441 1663 441 
Q 2288 441 2617 861 
Q 2947 1281 2994 2138 
Q 2813 1869 2534 1725 
Q 2256 1581 1919 1581 
Q 1219 1581 811 2004 
Q 403 2428 403 3163 
Q 403 3881 828 4315 
Q 1253 4750 1959 4750 
Q 2769 4750 3195 4129 
Q 3622 3509 3622 2328 
Q 3622 1225 3098 567 
Q 2575 -91 1691 -91 
Q 1453 -91 1209 -44 
Q 966 3 703 97 
z
M 1959 2075 
Q 2384 2075 2632 2365 
Q 2881 2656 2881 3163 
Q 2881 3666 2632 3958 
Q 2384 4250 1959 4250 
Q 1534 4250 1286 3958 
Q 1038 3666 1038 3163 
Q 1038 2656 1286 2365 
Q 1534 2075 1959 2075 
z
" transform="scale(0.015625)"/>
       </defs>
       <use xlink:href="#DejaVuSans-38"/>
       <use xlink:href="#DejaVuSans-39" x="63.623047"/>
      </g>
     </g>
    </g>
    <g id="text_21">
     <!-- BMI -->
     <g transform="translate(378.908594 539.834687)scale(0.1 -0.1)">
      <defs>
       <path id="DejaVuSans-42" d="M 1259 2228 
L 1259 519 
L 2272 519 
Q 2781 519 3026 730 
Q 3272 941 3272 1375 
Q 3272 1813 3026 2020 
Q 2781 2228 2272 2228 
L 1259 2228 
z
M 1259 4147 
L 1259 2741 
L 2194 2741 
Q 2656 2741 2882 2914 
Q 3109 3088 3109 3444 
Q 3109 3797 2882 3972 
Q 2656 4147 2194 4147 
L 1259 4147 
z
M 628 4666 
L 2241 4666 
Q 2963 4666 3353 4366 
Q 3744 4066 3744 3513 
Q 3744 3084 3544 2831 
Q 3344 2578 2956 2516 
Q 3422 2416 3680 2098 
Q 3938 1781 3938 1306 
Q 3938 681 3513 340 
Q 3088 0 2303 0 
L 628 0 
L 628 4666 
z
" transform="scale(0.015625)"/>
       <path id="DejaVuSans-4d" d="M 628 4666 
L 1569 4666 
L 2759 1491 
L 3956 4666 
L 4897 4666 
L 4897 0 
L 4281 0 
L 4281 4097 
L 3078 897 
L 2444 897 
L 1241 4097 
L 1241 0 
L 628 0 
L 628 4666 
z
" transform="scale(0.015625)"/>
       <path id="DejaVuSans-49" d="M 628 4666 
L 1259 4666 
L 1259 0 
L 628 0 
L 628 4666 
z
" transform="scale(0.015625)"/>
      </defs>
      <use xlink:href="#DejaVuSans-42"/>
      <use xlink:href="#DejaVuSans-4d" x="68.603516"/>
      <use xlink:href="#DejaVuSans-49" x="154.882812"/>
     </g>
    </g>
   </g>
   <g id="matplotlib.axis_2">
    <g id="ytick_1">
     <g id="line2d_21">
      <defs>
       <path id="mccb57f4c83" d="M 0 0 
L -3.5 0 
" style="stroke: #000000; stroke-width: 0.8"/>
      </defs>
      <g>
       <use xlink:href="#mccb57f4c83" x="53.328125" y="511.558125" style="stroke: #000000; stroke-width: 0.8"/>
      </g>
     </g>
     <g id="text_22">
      <!-- 0 -->
      <g transform="translate(39.965625 515.357344)scale(0.1 -0.1)">
       <use xlink:href="#DejaVuSans-30"/>
      </g>
     </g>
    </g>
    <g id="ytick_2">
     <g id="line2d_22">
      <g>
       <use xlink:href="#mccb57f4c83" x="53.328125" y="446.300022" style="stroke: #000000; stroke-width: 0.8"/>
      </g>
     </g>
     <g id="text_23">
      <!-- 500 -->
      <g transform="translate(27.240625 450.099241)scale(0.1 -0.1)">
       <use xlink:href="#DejaVuSans-35"/>
       <use xlink:href="#DejaVuSans-30" x="63.623047"/>
       <use xlink:href="#DejaVuSans-30" x="127.246094"/>
      </g>
     </g>
    </g>
    <g id="ytick_3">
     <g id="line2d_23">
      <g>
       <use xlink:href="#mccb57f4c83" x="53.328125" y="381.041919" style="stroke: #000000; stroke-width: 0.8"/>
      </g>
     </g>
     <g id="text_24">
      <!-- 1000 -->
      <g transform="translate(20.878125 384.841137)scale(0.1 -0.1)">
       <use xlink:href="#DejaVuSans-31"/>
       <use xlink:href="#DejaVuSans-30" x="63.623047"/>
       <use xlink:href="#DejaVuSans-30" x="127.246094"/>
       <use xlink:href="#DejaVuSans-30" x="190.869141"/>
      </g>
     </g>
    </g>
    <g id="ytick_4">
     <g id="line2d_24">
      <g>
       <use xlink:href="#mccb57f4c83" x="53.328125" y="315.783815" style="stroke: #000000; stroke-width: 0.8"/>
      </g>
     </g>
     <g id="text_25">
      <!-- 1500 -->
      <g transform="translate(20.878125 319.583034)scale(0.1 -0.1)">
       <use xlink:href="#DejaVuSans-31"/>
       <use xlink:href="#DejaVuSans-35" x="63.623047"/>
       <use xlink:href="#DejaVuSans-30" x="127.246094"/>
       <use xlink:href="#DejaVuSans-30" x="190.869141"/>
      </g>
     </g>
    </g>
    <g id="ytick_5">
     <g id="line2d_25">
      <g>
       <use xlink:href="#mccb57f4c83" x="53.328125" y="250.525712" style="stroke: #000000; stroke-width: 0.8"/>
      </g>
     </g>
     <g id="text_26">
      <!-- 2000 -->
      <g transform="translate(20.878125 254.324931)scale(0.1 -0.1)">
       <use xlink:href="#DejaVuSans-32"/>
       <use xlink:href="#DejaVuSans-30" x="63.623047"/>
       <use xlink:href="#DejaVuSans-30" x="127.246094"/>
       <use xlink:href="#DejaVuSans-30" x="190.869141"/>
      </g>
     </g>
    </g>
    <g id="ytick_6">
     <g id="line2d_26">
      <g>
       <use xlink:href="#mccb57f4c83" x="53.328125" y="185.267609" style="stroke: #000000; stroke-width: 0.8"/>
      </g>
     </g>
     <g id="text_27">
      <!-- 2500 -->
      <g transform="translate(20.878125 189.066828)scale(0.1 -0.1)">
       <use xlink:href="#DejaVuSans-32"/>
       <use xlink:href="#DejaVuSans-35" x="63.623047"/>
       <use xlink:href="#DejaVuSans-30" x="127.246094"/>
       <use xlink:href="#DejaVuSans-30" x="190.869141"/>
      </g>
     </g>
    </g>
    <g id="ytick_7">
     <g id="line2d_27">
      <g>
       <use xlink:href="#mccb57f4c83" x="53.328125" y="120.009506" style="stroke: #000000; stroke-width: 0.8"/>
      </g>
     </g>
     <g id="text_28">
      <!-- 3000 -->
      <g transform="translate(20.878125 123.808724)scale(0.1 -0.1)">
       <use xlink:href="#DejaVuSans-33"/>
       <use xlink:href="#DejaVuSans-30" x="63.623047"/>
       <use xlink:href="#DejaVuSans-30" x="127.246094"/>
       <use xlink:href="#DejaVuSans-30" x="190.869141"/>
      </g>
     </g>
    </g>
    <g id="ytick_8">
     <g id="line2d_28">
      <g>
       <use xlink:href="#mccb57f4c83" x="53.328125" y="54.751402" style="stroke: #000000; stroke-width: 0.8"/>
      </g>
     </g>
     <g id="text_29">
      <!-- 3500 -->
      <g transform="translate(20.878125 58.550621)scale(0.1 -0.1)">
       <use xlink:href="#DejaVuSans-33"/>
       <use xlink:href="#DejaVuSans-35" x="63.623047"/>
       <use xlink:href="#DejaVuSans-30" x="127.246094"/>
       <use xlink:href="#DejaVuSans-30" x="190.869141"/>
      </g>
     </g>
    </g>
    <g id="text_30">
     <!-- Number of Instances -->
     <g transform="translate(14.798438 318.893594)rotate(-90)scale(0.1 -0.1)">
      <defs>
       <path id="DejaVuSans-4e" d="M 628 4666 
L 1478 4666 
L 3547 763 
L 3547 4666 
L 4159 4666 
L 4159 0 
L 3309 0 
L 1241 3903 
L 1241 0 
L 628 0 
L 628 4666 
z
" transform="scale(0.015625)"/>
       <path id="DejaVuSans-75" d="M 544 1381 
L 544 3500 
L 1119 3500 
L 1119 1403 
Q 1119 906 1312 657 
Q 1506 409 1894 409 
Q 2359 409 2629 706 
Q 2900 1003 2900 1516 
L 2900 3500 
L 3475 3500 
L 3475 0 
L 2900 0 
L 2900 538 
Q 2691 219 2414 64 
Q 2138 -91 1772 -91 
Q 1169 -91 856 284 
Q 544 659 544 1381 
z
M 1991 3584 
L 1991 3584 
z
" transform="scale(0.015625)"/>
       <path id="DejaVuSans-6d" d="M 3328 2828 
Q 3544 3216 3844 3400 
Q 4144 3584 4550 3584 
Q 5097 3584 5394 3201 
Q 5691 2819 5691 2113 
L 5691 0 
L 5113 0 
L 5113 2094 
Q 5113 2597 4934 2840 
Q 4756 3084 4391 3084 
Q 3944 3084 3684 2787 
Q 3425 2491 3425 1978 
L 3425 0 
L 2847 0 
L 2847 2094 
Q 2847 2600 2669 2842 
Q 2491 3084 2119 3084 
Q 1678 3084 1418 2786 
Q 1159 2488 1159 1978 
L 1159 0 
L 581 0 
L 581 3500 
L 1159 3500 
L 1159 2956 
Q 1356 3278 1631 3431 
Q 1906 3584 2284 3584 
Q 2666 3584 2933 3390 
Q 3200 3197 3328 2828 
z
" transform="scale(0.015625)"/>
       <path id="DejaVuSans-62" d="M 3116 1747 
Q 3116 2381 2855 2742 
Q 2594 3103 2138 3103 
Q 1681 3103 1420 2742 
Q 1159 2381 1159 1747 
Q 1159 1113 1420 752 
Q 1681 391 2138 391 
Q 2594 391 2855 752 
Q 3116 1113 3116 1747 
z
M 1159 2969 
Q 1341 3281 1617 3432 
Q 1894 3584 2278 3584 
Q 2916 3584 3314 3078 
Q 3713 2572 3713 1747 
Q 3713 922 3314 415 
Q 2916 -91 2278 -91 
Q 1894 -91 1617 61 
Q 1341 213 1159 525 
L 1159 0 
L 581 0 
L 581 4863 
L 1159 4863 
L 1159 2969 
z
" transform="scale(0.015625)"/>
       <path id="DejaVuSans-65" d="M 3597 1894 
L 3597 1613 
L 953 1613 
Q 991 1019 1311 708 
Q 1631 397 2203 397 
Q 2534 397 2845 478 
Q 3156 559 3463 722 
L 3463 178 
Q 3153 47 2828 -22 
Q 2503 -91 2169 -91 
Q 1331 -91 842 396 
Q 353 884 353 1716 
Q 353 2575 817 3079 
Q 1281 3584 2069 3584 
Q 2775 3584 3186 3129 
Q 3597 2675 3597 1894 
z
M 3022 2063 
Q 3016 2534 2758 2815 
Q 2500 3097 2075 3097 
Q 1594 3097 1305 2825 
Q 1016 2553 972 2059 
L 3022 2063 
z
" transform="scale(0.015625)"/>
       <path id="DejaVuSans-72" d="M 2631 2963 
Q 2534 3019 2420 3045 
Q 2306 3072 2169 3072 
Q 1681 3072 1420 2755 
Q 1159 2438 1159 1844 
L 1159 0 
L 581 0 
L 581 3500 
L 1159 3500 
L 1159 2956 
Q 1341 3275 1631 3429 
Q 1922 3584 2338 3584 
Q 2397 3584 2469 3576 
Q 2541 3569 2628 3553 
L 2631 2963 
z
" transform="scale(0.015625)"/>
       <path id="DejaVuSans-20" transform="scale(0.015625)"/>
       <path id="DejaVuSans-6f" d="M 1959 3097 
Q 1497 3097 1228 2736 
Q 959 2375 959 1747 
Q 959 1119 1226 758 
Q 1494 397 1959 397 
Q 2419 397 2687 759 
Q 2956 1122 2956 1747 
Q 2956 2369 2687 2733 
Q 2419 3097 1959 3097 
z
M 1959 3584 
Q 2709 3584 3137 3096 
Q 3566 2609 3566 1747 
Q 3566 888 3137 398 
Q 2709 -91 1959 -91 
Q 1206 -91 779 398 
Q 353 888 353 1747 
Q 353 2609 779 3096 
Q 1206 3584 1959 3584 
z
" transform="scale(0.015625)"/>
       <path id="DejaVuSans-66" d="M 2375 4863 
L 2375 4384 
L 1825 4384 
Q 1516 4384 1395 4259 
Q 1275 4134 1275 3809 
L 1275 3500 
L 2222 3500 
L 2222 3053 
L 1275 3053 
L 1275 0 
L 697 0 
L 697 3053 
L 147 3053 
L 147 3500 
L 697 3500 
L 697 3744 
Q 697 4328 969 4595 
Q 1241 4863 1831 4863 
L 2375 4863 
z
" transform="scale(0.015625)"/>
       <path id="DejaVuSans-6e" d="M 3513 2113 
L 3513 0 
L 2938 0 
L 2938 2094 
Q 2938 2591 2744 2837 
Q 2550 3084 2163 3084 
Q 1697 3084 1428 2787 
Q 1159 2491 1159 1978 
L 1159 0 
L 581 0 
L 581 3500 
L 1159 3500 
L 1159 2956 
Q 1366 3272 1645 3428 
Q 1925 3584 2291 3584 
Q 2894 3584 3203 3211 
Q 3513 2838 3513 2113 
z
" transform="scale(0.015625)"/>
       <path id="DejaVuSans-73" d="M 2834 3397 
L 2834 2853 
Q 2591 2978 2328 3040 
Q 2066 3103 1784 3103 
Q 1356 3103 1142 2972 
Q 928 2841 928 2578 
Q 928 2378 1081 2264 
Q 1234 2150 1697 2047 
L 1894 2003 
Q 2506 1872 2764 1633 
Q 3022 1394 3022 966 
Q 3022 478 2636 193 
Q 2250 -91 1575 -91 
Q 1294 -91 989 -36 
Q 684 19 347 128 
L 347 722 
Q 666 556 975 473 
Q 1284 391 1588 391 
Q 1994 391 2212 530 
Q 2431 669 2431 922 
Q 2431 1156 2273 1281 
Q 2116 1406 1581 1522 
L 1381 1569 
Q 847 1681 609 1914 
Q 372 2147 372 2553 
Q 372 3047 722 3315 
Q 1072 3584 1716 3584 
Q 2034 3584 2315 3537 
Q 2597 3491 2834 3397 
z
" transform="scale(0.015625)"/>
       <path id="DejaVuSans-74" d="M 1172 4494 
L 1172 3500 
L 2356 3500 
L 2356 3053 
L 1172 3053 
L 1172 1153 
Q 1172 725 1289 603 
Q 1406 481 1766 481 
L 2356 481 
L 2356 0 
L 1766 0 
Q 1100 0 847 248 
Q 594 497 594 1153 
L 594 3053 
L 172 3053 
L 172 3500 
L 594 3500 
L 594 4494 
L 1172 4494 
z
" transform="scale(0.015625)"/>
       <path id="DejaVuSans-61" d="M 2194 1759 
Q 1497 1759 1228 1600 
Q 959 1441 959 1056 
Q 959 750 1161 570 
Q 1363 391 1709 391 
Q 2188 391 2477 730 
Q 2766 1069 2766 1631 
L 2766 1759 
L 2194 1759 
z
M 3341 1997 
L 3341 0 
L 2766 0 
L 2766 531 
Q 2569 213 2275 61 
Q 1981 -91 1556 -91 
Q 1019 -91 701 211 
Q 384 513 384 1019 
Q 384 1609 779 1909 
Q 1175 2209 1959 2209 
L 2766 2209 
L 2766 2266 
Q 2766 2663 2505 2880 
Q 2244 3097 1772 3097 
Q 1472 3097 1187 3025 
Q 903 2953 641 2809 
L 641 3341 
Q 956 3463 1253 3523 
Q 1550 3584 1831 3584 
Q 2591 3584 2966 3190 
Q 3341 2797 3341 1997 
z
" transform="scale(0.015625)"/>
       <path id="DejaVuSans-63" d="M 3122 3366 
L 3122 2828 
Q 2878 2963 2633 3030 
Q 2388 3097 2138 3097 
Q 1578 3097 1268 2742 
Q 959 2388 959 1747 
Q 959 1106 1268 751 
Q 1578 397 2138 397 
Q 2388 397 2633 464 
Q 2878 531 3122 666 
L 3122 134 
Q 2881 22 2623 -34 
Q 2366 -91 2075 -91 
Q 1284 -91 818 406 
Q 353 903 353 1747 
Q 353 2603 823 3093 
Q 1294 3584 2113 3584 
Q 2378 3584 2631 3529 
Q 2884 3475 3122 3366 
z
" transform="scale(0.015625)"/>
      </defs>
      <use xlink:href="#DejaVuSans-4e"/>
      <use xlink:href="#DejaVuSans-75" x="74.804688"/>
      <use xlink:href="#DejaVuSans-6d" x="138.183594"/>
      <use xlink:href="#DejaVuSans-62" x="235.595703"/>
      <use xlink:href="#DejaVuSans-65" x="299.072266"/>
      <use xlink:href="#DejaVuSans-72" x="360.595703"/>
      <use xlink:href="#DejaVuSans-20" x="401.708984"/>
      <use xlink:href="#DejaVuSans-6f" x="433.496094"/>
      <use xlink:href="#DejaVuSans-66" x="494.677734"/>
      <use xlink:href="#DejaVuSans-20" x="529.882812"/>
      <use xlink:href="#DejaVuSans-49" x="561.669922"/>
      <use xlink:href="#DejaVuSans-6e" x="591.162109"/>
      <use xlink:href="#DejaVuSans-73" x="654.541016"/>
      <use xlink:href="#DejaVuSans-74" x="706.640625"/>
      <use xlink:href="#DejaVuSans-61" x="745.849609"/>
      <use xlink:href="#DejaVuSans-6e" x="807.128906"/>
      <use xlink:href="#DejaVuSans-63" x="870.507812"/>
      <use xlink:href="#DejaVuSans-65" x="925.488281"/>
      <use xlink:href="#DejaVuSans-73" x="987.011719"/>
     </g>
    </g>
   </g>
   <g id="patch_163">
    <path d="M 53.328125 511.558125 
L 53.328125 22.318125 
" style="fill: none; stroke: #000000; stroke-width: 0.8; stroke-linejoin: miter; stroke-linecap: square"/>
   </g>
   <g id="patch_164">
    <path d="M 722.928125 511.558125 
L 722.928125 22.318125 
" style="fill: none; stroke: #000000; stroke-width: 0.8; stroke-linejoin: miter; stroke-linecap: square"/>
   </g>
   <g id="patch_165">
    <path d="M 53.328125 511.558125 
L 722.928125 511.558125 
" style="fill: none; stroke: #000000; stroke-width: 0.8; stroke-linejoin: miter; stroke-linecap: square"/>
   </g>
   <g id="patch_166">
    <path d="M 53.328125 22.318125 
L 722.928125 22.318125 
" style="fill: none; stroke: #000000; stroke-width: 0.8; stroke-linejoin: miter; stroke-linecap: square"/>
   </g>
   <g id="text_31">
    <!-- BMI Breakdown by Target Class -->
    <g transform="translate(294.245 16.318125)scale(0.12 -0.12)">
     <defs>
      <path id="DejaVuSans-6b" d="M 581 4863 
L 1159 4863 
L 1159 1991 
L 2875 3500 
L 3609 3500 
L 1753 1863 
L 3688 0 
L 2938 0 
L 1159 1709 
L 1159 0 
L 581 0 
L 581 4863 
z
" transform="scale(0.015625)"/>
      <path id="DejaVuSans-64" d="M 2906 2969 
L 2906 4863 
L 3481 4863 
L 3481 0 
L 2906 0 
L 2906 525 
Q 2725 213 2448 61 
Q 2172 -91 1784 -91 
Q 1150 -91 751 415 
Q 353 922 353 1747 
Q 353 2572 751 3078 
Q 1150 3584 1784 3584 
Q 2172 3584 2448 3432 
Q 2725 3281 2906 2969 
z
M 947 1747 
Q 947 1113 1208 752 
Q 1469 391 1925 391 
Q 2381 391 2643 752 
Q 2906 1113 2906 1747 
Q 2906 2381 2643 2742 
Q 2381 3103 1925 3103 
Q 1469 3103 1208 2742 
Q 947 2381 947 1747 
z
" transform="scale(0.015625)"/>
      <path id="DejaVuSans-77" d="M 269 3500 
L 844 3500 
L 1563 769 
L 2278 3500 
L 2956 3500 
L 3675 769 
L 4391 3500 
L 4966 3500 
L 4050 0 
L 3372 0 
L 2619 2869 
L 1863 0 
L 1184 0 
L 269 3500 
z
" transform="scale(0.015625)"/>
      <path id="DejaVuSans-79" d="M 2059 -325 
Q 1816 -950 1584 -1140 
Q 1353 -1331 966 -1331 
L 506 -1331 
L 506 -850 
L 844 -850 
Q 1081 -850 1212 -737 
Q 1344 -625 1503 -206 
L 1606 56 
L 191 3500 
L 800 3500 
L 1894 763 
L 2988 3500 
L 3597 3500 
L 2059 -325 
z
" transform="scale(0.015625)"/>
      <path id="DejaVuSans-54" d="M -19 4666 
L 3928 4666 
L 3928 4134 
L 2272 4134 
L 2272 0 
L 1638 0 
L 1638 4134 
L -19 4134 
L -19 4666 
z
" transform="scale(0.015625)"/>
      <path id="DejaVuSans-67" d="M 2906 1791 
Q 2906 2416 2648 2759 
Q 2391 3103 1925 3103 
Q 1463 3103 1205 2759 
Q 947 2416 947 1791 
Q 947 1169 1205 825 
Q 1463 481 1925 481 
Q 2391 481 2648 825 
Q 2906 1169 2906 1791 
z
M 3481 434 
Q 3481 -459 3084 -895 
Q 2688 -1331 1869 -1331 
Q 1566 -1331 1297 -1286 
Q 1028 -1241 775 -1147 
L 775 -588 
Q 1028 -725 1275 -790 
Q 1522 -856 1778 -856 
Q 2344 -856 2625 -561 
Q 2906 -266 2906 331 
L 2906 616 
Q 2728 306 2450 153 
Q 2172 0 1784 0 
Q 1141 0 747 490 
Q 353 981 353 1791 
Q 353 2603 747 3093 
Q 1141 3584 1784 3584 
Q 2172 3584 2450 3431 
Q 2728 3278 2906 2969 
L 2906 3500 
L 3481 3500 
L 3481 434 
z
" transform="scale(0.015625)"/>
      <path id="DejaVuSans-43" d="M 4122 4306 
L 4122 3641 
Q 3803 3938 3442 4084 
Q 3081 4231 2675 4231 
Q 1875 4231 1450 3742 
Q 1025 3253 1025 2328 
Q 1025 1406 1450 917 
Q 1875 428 2675 428 
Q 3081 428 3442 575 
Q 3803 722 4122 1019 
L 4122 359 
Q 3791 134 3420 21 
Q 3050 -91 2638 -91 
Q 1578 -91 968 557 
Q 359 1206 359 2328 
Q 359 3453 968 4101 
Q 1578 4750 2638 4750 
Q 3056 4750 3426 4639 
Q 3797 4528 4122 4306 
z
" transform="scale(0.015625)"/>
      <path id="DejaVuSans-6c" d="M 603 4863 
L 1178 4863 
L 1178 0 
L 603 0 
L 603 4863 
z
" transform="scale(0.015625)"/>
     </defs>
     <use xlink:href="#DejaVuSans-42"/>
     <use xlink:href="#DejaVuSans-4d" x="68.603516"/>
     <use xlink:href="#DejaVuSans-49" x="154.882812"/>
     <use xlink:href="#DejaVuSans-20" x="184.375"/>
     <use xlink:href="#DejaVuSans-42" x="216.162109"/>
     <use xlink:href="#DejaVuSans-72" x="284.765625"/>
     <use xlink:href="#DejaVuSans-65" x="323.628906"/>
     <use xlink:href="#DejaVuSans-61" x="385.152344"/>
     <use xlink:href="#DejaVuSans-6b" x="446.431641"/>
     <use xlink:href="#DejaVuSans-64" x="504.341797"/>
     <use xlink:href="#DejaVuSans-6f" x="567.818359"/>
     <use xlink:href="#DejaVuSans-77" x="629"/>
     <use xlink:href="#DejaVuSans-6e" x="710.787109"/>
     <use xlink:href="#DejaVuSans-20" x="774.166016"/>
     <use xlink:href="#DejaVuSans-62" x="805.953125"/>
     <use xlink:href="#DejaVuSans-79" x="869.429688"/>
     <use xlink:href="#DejaVuSans-20" x="928.609375"/>
     <use xlink:href="#DejaVuSans-54" x="960.396484"/>
     <use xlink:href="#DejaVuSans-61" x="1004.980469"/>
     <use xlink:href="#DejaVuSans-72" x="1066.259766"/>
     <use xlink:href="#DejaVuSans-67" x="1105.623047"/>
     <use xlink:href="#DejaVuSans-65" x="1169.099609"/>
     <use xlink:href="#DejaVuSans-74" x="1230.623047"/>
     <use xlink:href="#DejaVuSans-20" x="1269.832031"/>
     <use xlink:href="#DejaVuSans-43" x="1301.619141"/>
     <use xlink:href="#DejaVuSans-6c" x="1371.443359"/>
     <use xlink:href="#DejaVuSans-61" x="1399.226562"/>
     <use xlink:href="#DejaVuSans-73" x="1460.505859"/>
     <use xlink:href="#DejaVuSans-73" x="1512.605469"/>
    </g>
   </g>
   <g id="legend_1">
    <g id="patch_167">
     <path d="M 565.370313 59.674375 
L 715.928125 59.674375 
Q 717.928125 59.674375 717.928125 57.674375 
L 717.928125 29.318125 
Q 717.928125 27.318125 715.928125 27.318125 
L 565.370313 27.318125 
Q 563.370313 27.318125 563.370313 29.318125 
L 563.370313 57.674375 
Q 563.370313 59.674375 565.370313 59.674375 
z
" style="fill: #ffffff; opacity: 0.8; stroke: #cccccc; stroke-linejoin: miter"/>
    </g>
    <g id="patch_168">
     <path d="M 567.370313 38.916562 
L 587.370313 38.916562 
L 587.370313 31.916562 
L 567.370313 31.916562 
z
" style="fill: #0000ff"/>
    </g>
    <g id="text_32">
     <!-- No diabetes -->
     <g transform="translate(595.370313 38.916562)scale(0.1 -0.1)">
      <defs>
       <path id="DejaVuSans-69" d="M 603 3500 
L 1178 3500 
L 1178 0 
L 603 0 
L 603 3500 
z
M 603 4863 
L 1178 4863 
L 1178 4134 
L 603 4134 
L 603 4863 
z
" transform="scale(0.015625)"/>
      </defs>
      <use xlink:href="#DejaVuSans-4e"/>
      <use xlink:href="#DejaVuSans-6f" x="74.804688"/>
      <use xlink:href="#DejaVuSans-20" x="135.986328"/>
      <use xlink:href="#DejaVuSans-64" x="167.773438"/>
      <use xlink:href="#DejaVuSans-69" x="231.25"/>
      <use xlink:href="#DejaVuSans-61" x="259.033203"/>
      <use xlink:href="#DejaVuSans-62" x="320.3125"/>
      <use xlink:href="#DejaVuSans-65" x="383.789062"/>
      <use xlink:href="#DejaVuSans-74" x="445.3125"/>
      <use xlink:href="#DejaVuSans-65" x="484.521484"/>
      <use xlink:href="#DejaVuSans-73" x="546.044922"/>
     </g>
    </g>
    <g id="patch_169">
     <path d="M 567.370313 53.594687 
L 587.370313 53.594687 
L 587.370313 46.594687 
L 567.370313 46.594687 
z
" style="fill: #ff0000"/>
    </g>
    <g id="text_33">
     <!-- Prediabetes or diabetes -->
     <g transform="translate(595.370313 53.594687)scale(0.1 -0.1)">
      <defs>
       <path id="DejaVuSans-50" d="M 1259 4147 
L 1259 2394 
L 2053 2394 
Q 2494 2394 2734 2622 
Q 2975 2850 2975 3272 
Q 2975 3691 2734 3919 
Q 2494 4147 2053 4147 
L 1259 4147 
z
M 628 4666 
L 2053 4666 
Q 2838 4666 3239 4311 
Q 3641 3956 3641 3272 
Q 3641 2581 3239 2228 
Q 2838 1875 2053 1875 
L 1259 1875 
L 1259 0 
L 628 0 
L 628 4666 
z
" transform="scale(0.015625)"/>
      </defs>
      <use xlink:href="#DejaVuSans-50"/>
      <use xlink:href="#DejaVuSans-72" x="58.552734"/>
      <use xlink:href="#DejaVuSans-65" x="97.416016"/>
      <use xlink:href="#DejaVuSans-64" x="158.939453"/>
      <use xlink:href="#DejaVuSans-69" x="222.416016"/>
      <use xlink:href="#DejaVuSans-61" x="250.199219"/>
      <use xlink:href="#DejaVuSans-62" x="311.478516"/>
      <use xlink:href="#DejaVuSans-65" x="374.955078"/>
      <use xlink:href="#DejaVuSans-74" x="436.478516"/>
      <use xlink:href="#DejaVuSans-65" x="475.6875"/>
      <use xlink:href="#DejaVuSans-73" x="537.210938"/>
      <use xlink:href="#DejaVuSans-20" x="589.310547"/>
      <use xlink:href="#DejaVuSans-6f" x="621.097656"/>
      <use xlink:href="#DejaVuSans-72" x="682.279297"/>
      <use xlink:href="#DejaVuSans-20" x="723.392578"/>
      <use xlink:href="#DejaVuSans-64" x="755.179688"/>
      <use xlink:href="#DejaVuSans-69" x="818.65625"/>
      <use xlink:href="#DejaVuSans-61" x="846.439453"/>
      <use xlink:href="#DejaVuSans-62" x="907.71875"/>
      <use xlink:href="#DejaVuSans-65" x="971.195312"/>
      <use xlink:href="#DejaVuSans-74" x="1032.71875"/>
      <use xlink:href="#DejaVuSans-65" x="1071.927734"/>
      <use xlink:href="#DejaVuSans-73" x="1133.451172"/>
     </g>
    </g>
   </g>
  </g>
 </g>
 <defs>
  <clipPath id="pb9b24d87b6">
   <rect x="53.328125" y="22.318125" width="669.6" height="489.24"/>
  </clipPath>
 </defs>
</svg>
